<?xml version="1.0" encoding="utf-8"?>
<!-- Generator: Adobe Illustrator 15.0.0, SVG Export Plug-In  -->
<!DOCTYPE svg PUBLIC "-//W3C//DTD SVG 1.1//EN" "http://www.w3.org/Graphics/SVG/1.1/DTD/svg11.dtd" [
	<!ENTITY ns_flows "http://ns.adobe.com/Flows/1.0/">
]>
<svg version="1.1"
	 xmlns="http://www.w3.org/2000/svg" xmlns:xlink="http://www.w3.org/1999/xlink" xmlns:a="http://ns.adobe.com/AdobeSVGViewerExtensions/3.0/"
	 x="0px" y="0px" width="181px" height="23px" viewBox="-0.635 -0.083 181 23"
	 overflow="visible" enable-background="new -0.635 -0.083 181 23" xml:space="preserve">
<defs>
</defs>
<g>
	<defs>
		<circle id="SVGID_1_" cx="13.407" cy="12.264" r="10.631"/>
	</defs>
	<use xlink:href="#SVGID_1_"  overflow="visible" fill="#E94B24"/>
	<clipPath id="SVGID_2_">
		<use xlink:href="#SVGID_1_"  overflow="visible"/>
	</clipPath>
	<g clip-path="url(#SVGID_2_)">
		<path fill="#FFFFFF" stroke="#E94B24" stroke-width="1.5693" stroke-miterlimit="10" d="M18.542,5.094
			c1.648,0.593,2.077,1.894,1.381,3.824l-3.778,10.5c-0.695,1.933-1.844,2.638-3.494,2.042L2.067,17.523
			c-0.842-0.404-0.969-0.672-1.223-1.21C0.655,15.91,0.927,14.919,1.5,14.65c0.403-0.19,0.878-0.312,2.042,0.064l7.553,3.377
			c0.834,0.303,1.144,0.111,1.457-0.758l1.993-8.998c0.312-0.869-0.349-1.434-1.184-1.733l-7.7-2.833
			C4.989,3.425,4.748,2.821,4.92,2.089c0.192-0.824,0.867-1.548,1.861-1.227L18.542,5.094z"/>
		<path fill="#FFFFFF" stroke="#E94B24" stroke-width="0.7846" stroke-miterlimit="10" d="M12.544,6.972
			c0.948,0.34,1.195,1.088,0.795,2.199l-2.173,6.041c-0.4,1.111-1.062,1.517-2.01,1.175l-6.088-2.266
			c-0.485-0.232-0.557-0.387-0.704-0.695c-0.108-0.232,0.048-0.803,0.377-0.958c0.232-0.108,0.505-0.178,1.175,0.038l4.345,1.944
			c0.48,0.172,0.658,0.062,0.838-0.436l1.146-5.178c0.18-0.5-0.2-0.824-0.682-0.996l-4.428-1.63
			C4.748,6.011,4.609,5.663,4.708,5.243c0.111-0.474,0.5-0.89,1.071-0.707L12.544,6.972z"/>
		<path fill="#FFFFFF" d="M8.018,12.596c-0.171,0.474-0.531,0.616-1.046,0.43l-3.859-1.389c-0.508-0.184-0.7-0.525-0.531-0.998
			L3.75,7.396c0.172-0.474,0.54-0.62,1.048-0.438l3.858,1.389c0.517,0.186,0.7,0.532,0.529,1.006L8.018,12.596z M6.946,12.408
			c0.279,0.101,0.375,0.069,0.456-0.159L8.064,9.25c0.083-0.228,0.032-0.319-0.248-0.42L4.791,7.67
			c-0.28-0.102-0.374-0.069-0.46,0.165l-0.772,3.02c-0.084,0.233-0.029,0.312,0.251,0.414L6.946,12.408z"/>
	</g>
</g>
<path fill="#E94B24" d="M45.402,8.089l-1.703,1.623c-1.158-1.224-2.461-1.836-3.91-1.836c-1.222,0-2.251,0.418-3.088,1.253
	s-1.255,1.866-1.255,3.09c0,0.853,0.186,1.61,0.556,2.272c0.371,0.661,0.895,1.18,1.572,1.558c0.678,0.377,1.431,0.565,2.259,0.565
	c0.707,0,1.353-0.132,1.938-0.396c0.585-0.264,1.228-0.744,1.929-1.439l1.651,1.723c-0.945,0.922-1.838,1.561-2.678,1.918
	c-0.841,0.356-1.8,0.535-2.878,0.535c-1.988,0-3.616-0.631-4.882-1.892s-1.9-2.877-1.9-4.848c0-1.275,0.288-2.409,0.865-3.4
	c0.577-0.991,1.403-1.788,2.478-2.391c1.075-0.603,2.233-0.904,3.474-0.904c1.055,0,2.071,0.223,3.048,0.668
	C43.853,6.634,44.695,7.268,45.402,8.089z"/>
<path fill="#E94B24" d="M53.572,5.52c1.81,0,3.366,0.655,4.668,1.965s1.954,2.907,1.954,4.791c0,1.866-0.643,3.446-1.928,4.739
	c-1.285,1.293-2.844,1.939-4.677,1.939c-1.92,0-3.515-0.664-4.786-1.992c-1.27-1.327-1.905-2.904-1.905-4.73
	c0-1.223,0.296-2.348,0.887-3.374c0.592-1.026,1.405-1.839,2.441-2.439C51.261,5.82,52.376,5.52,53.572,5.52z M53.545,7.902
	c-1.184,0-2.179,0.412-2.985,1.234c-0.807,0.823-1.21,1.87-1.21,3.139c0,1.415,0.508,2.533,1.523,3.356
	c0.79,0.644,1.695,0.965,2.716,0.965c1.155,0,2.138-0.417,2.951-1.252c0.812-0.834,1.219-1.863,1.219-3.086
	c0-1.218-0.409-2.248-1.227-3.091C55.713,8.324,54.718,7.902,53.545,7.902z"/>
<path fill="#E94B24" d="M74.245,8.089l-1.703,1.623c-1.158-1.224-2.461-1.836-3.91-1.836c-1.222,0-2.251,0.418-3.088,1.253
	s-1.255,1.866-1.255,3.09c0,0.853,0.186,1.61,0.556,2.272c0.371,0.661,0.895,1.18,1.572,1.558c0.678,0.377,1.431,0.565,2.259,0.565
	c0.707,0,1.353-0.132,1.938-0.396c0.585-0.264,1.228-0.744,1.929-1.439l1.651,1.723c-0.945,0.922-1.838,1.561-2.678,1.918
	c-0.841,0.356-1.8,0.535-2.878,0.535c-1.988,0-3.616-0.631-4.882-1.892s-1.9-2.877-1.9-4.848c0-1.275,0.288-2.409,0.865-3.4
	c0.577-0.991,1.403-1.788,2.478-2.391c1.075-0.603,2.233-0.904,3.474-0.904c1.055,0,2.071,0.223,3.048,0.668
	C72.696,6.634,73.538,7.268,74.245,8.089z"/>
<path fill="#E94B24" d="M82.415,5.52c1.81,0,3.366,0.655,4.668,1.965s1.954,2.907,1.954,4.791c0,1.866-0.643,3.446-1.928,4.739
	c-1.285,1.293-2.844,1.939-4.677,1.939c-1.92,0-3.515-0.664-4.786-1.992c-1.27-1.327-1.905-2.904-1.905-4.73
	c0-1.223,0.296-2.348,0.887-3.374c0.592-1.026,1.405-1.839,2.441-2.439C80.104,5.82,81.219,5.52,82.415,5.52z M82.388,7.902
	c-1.184,0-2.179,0.412-2.985,1.234c-0.807,0.823-1.21,1.87-1.21,3.139c0,1.415,0.508,2.533,1.523,3.356
	c0.79,0.644,1.695,0.965,2.716,0.965c1.155,0,2.138-0.417,2.951-1.252c0.812-0.834,1.219-1.863,1.219-3.086
	c0-1.218-0.409-2.248-1.227-3.091C84.556,8.324,83.561,7.902,82.388,7.902z"/>
<path fill="#E94B24" d="M91.332,5.841h2.435V16.31h3.548v2.322h-5.982V5.841z"/>
<path fill="#E94B24" d="M105.205,5.52c1.811,0,3.366,0.655,4.668,1.965c1.303,1.31,1.954,2.907,1.954,4.791
	c0,1.866-0.643,3.446-1.928,4.739c-1.284,1.293-2.844,1.939-4.677,1.939c-1.92,0-3.516-0.664-4.785-1.992
	c-1.271-1.327-1.906-2.904-1.906-4.73c0-1.223,0.297-2.348,0.888-3.374c0.592-1.026,1.405-1.839,2.44-2.439
	C102.894,5.82,104.009,5.52,105.205,5.52z M105.179,7.902c-1.185,0-2.18,0.412-2.986,1.234c-0.807,0.823-1.209,1.87-1.209,3.139
	c0,1.415,0.508,2.533,1.522,3.356c0.79,0.644,1.694,0.965,2.716,0.965c1.154,0,2.139-0.417,2.951-1.252
	c0.812-0.834,1.219-1.863,1.219-3.086c0-1.218-0.41-2.248-1.228-3.091C107.346,8.324,106.351,7.902,105.179,7.902z"/>
<path fill="#E94B24" d="M117.843,5.841h7.07v2.4h-2.331v10.391h-2.47V8.241h-2.27V5.841z"/>
<path fill="#E94B24" d="M127.845,5.841h2.58c1.412,0,2.419,0.126,3.018,0.378c0.6,0.252,1.082,0.671,1.447,1.256
	c0.364,0.585,0.547,1.278,0.547,2.078c0,0.841-0.201,1.543-0.604,2.109c-0.403,0.565-1.01,0.993-1.821,1.282l3.029,5.688h-2.661
	l-2.876-5.418h-0.223v5.418h-2.436V5.841z M130.281,10.841h0.763c0.774,0,1.308-0.102,1.599-0.305
	c0.293-0.204,0.438-0.541,0.438-1.012c0-0.279-0.072-0.522-0.217-0.729s-0.339-0.354-0.581-0.445s-0.688-0.135-1.334-0.135h-0.668
	V10.841z"/>
<path fill="#E94B24" d="M142.523,5.841h2.469l4.92,12.791h-2.53l-1.001-2.635h-5.219l-1.041,2.635h-2.53L142.523,5.841z
	 M143.773,9.232l-1.717,4.391h3.422L143.773,9.232z"/>
<path fill="#E94B24" d="M149.434,5.841h2.503l3.219,9.087l3.266-9.087h2.5l-4.609,12.791h-2.348L149.434,5.841z"/>
<path fill="#E94B24" d="M163.272,5.841h6.982v2.383h-4.565v2.313h4.565v2.339h-4.565v3.366h4.565v2.391h-6.982V5.841z"/>
<path fill="#E94B24" d="M173.818,5.841h2.434V16.31h3.549v2.322h-5.982V5.841z"/>
</svg>
